# xmcd
#
# Track frame offsets:
#	150
#	30202
#	52145
#	77587
#	101062
#	127072
#	146700
#	172647
#
# Disc length: 2708 seconds
#
# Revision: 0
# Processed by: cddbd v1.5.1PL2 Copyright (c) Steve Scherf et al.
# Submitted via: SynApp - FreeCDDB Version: 2.2
#
DISCID=620a9208
DTITLE=Emerson - Ball and Chain
DYEAR=1997
DGENRE=Blues
TTITLE0=Emerson - Tell me why
TTITLE1=Emerson - Drowning in my own tears
TTITLE2=Emerson - Just like you
TTITLE3=Emerson - Found a woman
TTITLE4=Emerson - Ball and Chain
TTITLE5=Emerson - Why can´t you see
TTITLE6=Emerson - Took your love
TTITLE7=Emerson - Can´t take it
EXTD=
EXTT0=
EXTT1=
EXTT2=
EXTT3=
EXTT4=
EXTT5=
EXTT6=
EXTT7=
PLAYORDER=
